<?xml version="1.0" standalone="no"?>
<!DOCTYPE svg PUBLIC "-//W3C//DTD SVG 20010904//EN"
 "http://www.w3.org/TR/2001/REC-SVG-20010904/DTD/svg10.dtd">
<svg version="1.0" xmlns="http://www.w3.org/2000/svg"
 width="1024.000000pt" height="1024.000000pt" viewBox="0 0 1024.000000 1024.000000"
 preserveAspectRatio="xMidYMid meet">
<metadata>
Created by potrace 1.14, written by Peter Selinger 2001-2017
</metadata>
<g transform="translate(0.000000,1024.000000) scale(0.100000,-0.100000)"
fill="#000000" stroke="none">
<path d="M0 5120 l0 -5120 5120 0 5120 0 0 5120 0 5120 -5120 0 -5120 0 0
-5120z m3681 2018 c498 -636 947 -1208 1197 -1528 140 -179 257 -326 261 -327
3 -1 80 94 171 210 90 117 335 430 544 697 209 267 514 658 679 870 165 212
304 389 309 395 14 15 127 -49 196 -111 76 -69 153 -182 183 -271 l24 -68 0
-1920 c0 -1836 -1 -1923 -18 -1980 -32 -104 -87 -195 -162 -270 -109 -109
-216 -156 -382 -169 l-73 -5 0 1670 c0 918 -3 1669 -7 1669 -5 -1 -35 -36 -68
-78 -178 -229 -860 -1107 -1055 -1357 -124 -159 -250 -322 -280 -362 -30 -39
-59 -71 -65 -69 -9 2 -242 292 -470 586 -44 57 -141 180 -216 274 -74 94 -236
299 -358 456 -123 157 -271 346 -330 421 l-106 136 -3 -1668 -2 -1669 -58 0
c-157 0 -288 54 -399 165 -54 53 -82 92 -108 146 -70 150 -65 -12 -65 2115 0
1882 0 1923 20 1985 43 141 155 265 314 349 32 16 62 30 66 30 5 0 122 -145
261 -322z"/>
</g>
</svg>
